<svg id="visual" viewBox="0 0 960 540" width="960" height="540" xmlns="http://www.w3.org/2000/svg" xmlns:xlink="http://www.w3.org/1999/xlink" version="1.1"><path d="M0 177L16 173.2C32 169.3 64 161.7 96 160.3C128 159 160 164 192 163.5C224 163 256 157 288 153.7C320 150.3 352 149.7 384 149.2C416 148.7 448 148.3 480 154.8C512 161.3 544 174.7 576 179.3C608 184 640 180 672 178.3C704 176.7 736 177.3 768 178.7C800 180 832 182 864 174.8C896 167.7 928 151.3 944 143.2L960 135L960 0L944 0C928 0 896 0 864 0C832 0 800 0 768 0C736 0 704 0 672 0C640 0 608 0 576 0C544 0 512 0 480 0C448 0 416 0 384 0C352 0 320 0 288 0C256 0 224 0 192 0C160 0 128 0 96 0C64 0 32 0 16 0L0 0Z" fill="#f3b184"></path><path d="M0 145L16 141.5C32 138 64 131 96 133.3C128 135.7 160 147.3 192 151.7C224 156 256 153 288 149.8C320 146.7 352 143.3 384 140.5C416 137.7 448 135.3 480 135.2C512 135 544 137 576 135.7C608 134.3 640 129.7 672 131.3C704 133 736 141 768 144.3C800 147.7 832 146.3 864 147.5C896 148.7 928 152.3 944 154.2L960 156L960 0L944 0C928 0 896 0 864 0C832 0 800 0 768 0C736 0 704 0 672 0C640 0 608 0 576 0C544 0 512 0 480 0C448 0 416 0 384 0C352 0 320 0 288 0C256 0 224 0 192 0C160 0 128 0 96 0C64 0 32 0 16 0L0 0Z" fill="#d68a7a"></path><path d="M0 112L16 110.3C32 108.7 64 105.3 96 106C128 106.7 160 111.3 192 112C224 112.7 256 109.3 288 111.5C320 113.7 352 121.3 384 118.8C416 116.3 448 103.7 480 102.2C512 100.7 544 110.3 576 115.2C608 120 640 120 672 120.5C704 121 736 122 768 116.5C800 111 832 99 864 94.3C896 89.7 928 92.3 944 93.7L960 95L960 0L944 0C928 0 896 0 864 0C832 0 800 0 768 0C736 0 704 0 672 0C640 0 608 0 576 0C544 0 512 0 480 0C448 0 416 0 384 0C352 0 320 0 288 0C256 0 224 0 192 0C160 0 128 0 96 0C64 0 32 0 16 0L0 0Z" fill="#b06871"></path><path d="M0 94L16 92.7C32 91.3 64 88.7 96 86.3C128 84 160 82 192 84.7C224 87.3 256 94.7 288 91.8C320 89 352 76 384 70.3C416 64.7 448 66.3 480 70.7C512 75 544 82 576 82.8C608 83.7 640 78.3 672 79.7C704 81 736 89 768 89C800 89 832 81 864 75.8C896 70.7 928 68.3 944 67.2L960 66L960 0L944 0C928 0 896 0 864 0C832 0 800 0 768 0C736 0 704 0 672 0C640 0 608 0 576 0C544 0 512 0 480 0C448 0 416 0 384 0C352 0 320 0 288 0C256 0 224 0 192 0C160 0 128 0 96 0C64 0 32 0 16 0L0 0Z" fill="#854b66"></path><path d="M0 58L16 55.8C32 53.7 64 49.3 96 51.2C128 53 160 61 192 61C224 61 256 53 288 49.2C320 45.3 352 45.7 384 49.3C416 53 448 60 480 59.3C512 58.7 544 50.3 576 46.2C608 42 640 42 672 46.2C704 50.3 736 58.7 768 61.7C800 64.7 832 62.3 864 60C896 57.7 928 55.3 944 54.2L960 53L960 0L944 0C928 0 896 0 864 0C832 0 800 0 768 0C736 0 704 0 672 0C640 0 608 0 576 0C544 0 512 0 480 0C448 0 416 0 384 0C352 0 320 0 288 0C256 0 224 0 192 0C160 0 128 0 96 0C64 0 32 0 16 0L0 0Z" fill="#563455"></path><path d="M0 20L16 19.3C32 18.7 64 17.3 96 20.5C128 23.7 160 31.3 192 35C224 38.7 256 38.3 288 36.5C320 34.7 352 31.3 384 30.3C416 29.3 448 30.7 480 31C512 31.3 544 30.7 576 28.2C608 25.7 640 21.3 672 19C704 16.7 736 16.3 768 18.2C800 20 832 24 864 24.8C896 25.7 928 23.3 944 22.2L960 21L960 0L944 0C928 0 896 0 864 0C832 0 800 0 768 0C736 0 704 0 672 0C640 0 608 0 576 0C544 0 512 0 480 0C448 0 416 0 384 0C352 0 320 0 288 0C256 0 224 0 192 0C160 0 128 0 96 0C64 0 32 0 16 0L0 0Z" fill="#281f3e"></path></svg>