<svg id="visual" viewBox="0 0 1366 768" width="1366" height="768" xmlns="http://www.w3.org/2000/svg" xmlns:xlink="http://www.w3.org/1999/xlink" version="1.1"><rect x="0" y="0" width="1366" height="768" fill="#000000"></rect><defs><linearGradient id="grad1_0" x1="43.8%" y1="0%" x2="100%" y2="100%"><stop offset="14.427083333333334%" stop-color="#00ffff" stop-opacity="1"></stop><stop offset="85.57291666666667%" stop-color="#00ffff" stop-opacity="1"></stop></linearGradient></defs><defs><linearGradient id="grad1_1" x1="43.8%" y1="0%" x2="100%" y2="100%"><stop offset="14.427083333333334%" stop-color="#00ffff" stop-opacity="1"></stop><stop offset="85.57291666666667%" stop-color="#00a9aa" stop-opacity="1"></stop></linearGradient></defs><defs><linearGradient id="grad1_2" x1="43.8%" y1="0%" x2="100%" y2="100%"><stop offset="14.427083333333334%" stop-color="#00595d" stop-opacity="1"></stop><stop offset="85.57291666666667%" stop-color="#00a9aa" stop-opacity="1"></stop></linearGradient></defs><defs><linearGradient id="grad1_3" x1="43.8%" y1="0%" x2="100%" y2="100%"><stop offset="14.427083333333334%" stop-color="#00595d" stop-opacity="1"></stop><stop offset="85.57291666666667%" stop-color="#000000" stop-opacity="1"></stop></linearGradient></defs><defs><linearGradient id="grad2_0" x1="0%" y1="0%" x2="56.2%" y2="100%"><stop offset="14.427083333333334%" stop-color="#00ffff" stop-opacity="1"></stop><stop offset="85.57291666666667%" stop-color="#00ffff" stop-opacity="1"></stop></linearGradient></defs><defs><linearGradient id="grad2_1" x1="0%" y1="0%" x2="56.2%" y2="100%"><stop offset="14.427083333333334%" stop-color="#00a9aa" stop-opacity="1"></stop><stop offset="85.57291666666667%" stop-color="#00ffff" stop-opacity="1"></stop></linearGradient></defs><defs><linearGradient id="grad2_2" x1="0%" y1="0%" x2="56.2%" y2="100%"><stop offset="14.427083333333334%" stop-color="#00a9aa" stop-opacity="1"></stop><stop offset="85.57291666666667%" stop-color="#00595d" stop-opacity="1"></stop></linearGradient></defs><defs><linearGradient id="grad2_3" x1="0%" y1="0%" x2="56.2%" y2="100%"><stop offset="14.427083333333334%" stop-color="#000000" stop-opacity="1"></stop><stop offset="85.57291666666667%" stop-color="#00595d" stop-opacity="1"></stop></linearGradient></defs><g transform="translate(1366, 0)"><path d="M0 460.8C-46 449.2 -91.9 437.6 -138.1 425.1C-184.4 412.6 -230.9 399.2 -270.9 372.8C-310.8 346.3 -344.3 306.8 -363.2 263.9C-382.2 221 -386.6 174.7 -400.4 130.1C-414.2 85.5 -437.5 42.8 -460.8 0L0 0Z" fill="#003439"></path><path d="M0 345.6C-34.5 336.9 -68.9 328.2 -103.6 318.8C-138.3 309.5 -173.1 299.4 -203.1 279.6C-233.1 259.8 -258.2 230.1 -272.4 197.9C-286.6 165.7 -289.9 131 -300.3 97.6C-310.7 64.2 -328.1 32.1 -345.6 0L0 0Z" fill="#008082"></path><path d="M0 230.4C-23 224.6 -46 218.8 -69.1 212.6C-92.2 206.3 -115.4 199.6 -135.4 186.4C-155.4 173.2 -172.2 153.4 -181.6 132C-191.1 110.5 -193.3 87.3 -200.2 65C-207.1 42.8 -218.8 21.4 -230.4 0L0 0Z" fill="#00d3d4"></path><path d="M0 115.2C-11.5 112.3 -23 109.4 -34.5 106.3C-46.1 103.2 -57.7 99.8 -67.7 93.2C-77.7 86.6 -86.1 76.7 -90.8 66C-95.5 55.2 -96.6 43.7 -100.1 32.5C-103.6 21.4 -109.4 10.7 -115.2 0L0 0Z" fill="#00ffff"></path></g><g transform="translate(0, 768)"><path d="M0 -460.8C54.5 -464.9 109 -469.1 142.4 -438.2C175.8 -407.4 188.2 -341.7 225.7 -310.7C263.2 -279.7 325.8 -283.4 353.5 -256.9C381.3 -230.3 374.1 -173.3 386.1 -125.5C398.2 -77.6 429.5 -38.8 460.8 0L0 0Z" fill="#003439"></path><path d="M0 -345.6C40.9 -348.7 81.7 -351.8 106.8 -328.7C131.9 -305.6 141.2 -256.2 169.3 -233C197.4 -209.8 244.4 -212.6 265.2 -192.6C285.9 -172.7 280.6 -130 289.6 -94.1C298.6 -58.2 322.1 -29.1 345.6 0L0 0Z" fill="#008082"></path><path d="M0 -230.4C27.2 -232.5 54.5 -234.5 71.2 -219.1C87.9 -203.7 94.1 -170.8 112.9 -155.3C131.6 -139.8 162.9 -141.7 176.8 -128.4C190.6 -115.1 187 -86.7 193.1 -62.7C199.1 -38.8 214.7 -19.4 230.4 0L0 0Z" fill="#00d3d4"></path><path d="M0 -115.2C13.6 -116.2 27.2 -117.3 35.6 -109.6C44 -101.9 47.1 -85.4 56.4 -77.7C65.8 -69.9 81.5 -70.9 88.4 -64.2C95.3 -57.6 93.5 -43.3 96.5 -31.4C99.5 -19.4 107.4 -9.7 115.2 0L0 0Z" fill="#00ffff"></path></g></svg>